<?xml version="1.0" encoding="utf-8"?>
<svg version="1.1" id="Ebene_4" xmlns="http://www.w3.org/2000/svg" xmlns:xlink="http://www.w3.org/1999/xlink" x="0px" y="0px"
	 viewBox="0 0 600.9 130.4" style="enable-background:new 0 0 600.9 130.4;" xml:space="preserve">
<style type="text/css">
	.st0{fill:#1D1D1B;}
	.st1{fill:#0077B0;}
</style>
<g>
	<path class="st0" d="M153.7,18.6c3.6-0.7,8.7-1.1,14.1-1.1c7.4,0,12.3,1.2,15.8,4.1c2.8,2.4,4.4,5.9,4.4,10.3
		c0,6.6-4.5,11.1-9.3,12.8v0.2c3.7,1.4,5.9,4.9,7.1,9.9c1.7,6.4,3,12.3,4,14.3h-9.6c-0.8-1.5-2-5.7-3.4-12.1c-1.5-6.7-3.9-8.8-9.2-9
		H163v21h-9.3V18.6z M163,41.1h5.5c6.3,0,10.2-3.3,10.2-8.4c0-5.5-3.9-8.2-9.9-8.2c-3,0-4.9,0.2-5.8,0.5V41.1z"/>
	<path class="st0" d="M205.9,54.5L201.5,69h-9.6l16.4-51.2h11.9L236.8,69h-10l-4.6-14.5H205.9z M220.5,47.4l-4-12.6
		c-1-3.1-1.8-6.6-2.6-9.6h-0.2c-0.8,3-1.5,6.5-2.4,9.6l-3.9,12.6H220.5z"/>
	<path class="st0" d="M242.1,18.6c4.2-0.7,9.3-1.1,14.9-1.1c9.6,0,16.1,2,20.8,5.9c5,4,8,10.2,8,18.8c0,9.2-3.1,15.9-8,20.3
		c-5.1,4.6-13.2,7-23.1,7c-5.4,0-9.5-0.3-12.6-0.7V18.6z M251.4,61.9c1.3,0.2,3.3,0.2,5.2,0.2c12.1,0.1,19.4-6.7,19.4-19.7
		c0.1-11.2-6.5-17.8-18.1-17.8c-3,0-5,0.2-6.4,0.5V61.9z"/>
	<path class="st0" d="M320.7,46.3h-19.3v15h21.6V69H292V17.8h29.8v7.7h-20.4v13.2h19.3V46.3z"/>
	<path class="st0" d="M372.4,48.1c-0.3-6.6-0.7-14.5-0.6-21.5h-0.2c-1.7,6.2-3.8,13.1-6.1,19.6L358,68.4h-7.1L344,46.5
		c-2-6.5-3.8-13.5-5.2-19.9h-0.2c-0.2,6.7-0.5,14.8-0.9,21.8L336.7,69h-8.7l3.4-51.2h12.3l6.7,20.6c1.8,6,3.4,12.1,4.7,17.8h0.2
		c1.4-5.5,3.1-11.8,5.1-17.8l7.1-20.5h12.1l3,51.2h-9.1L372.4,48.1z"/>
	<path class="st0" d="M400,54.5L395.6,69h-9.6l16.4-51.2h11.9L430.9,69h-10l-4.6-14.5H400z M414.6,47.4l-4-12.6
		c-1-3.1-1.8-6.6-2.6-9.6h-0.2c-0.8,3-1.5,6.5-2.4,9.6l-3.9,12.6H414.6z"/>
	<path class="st0" d="M471.2,67.5c-2.2,1.1-7.1,2.3-13.3,2.3c-16.2,0-26.1-10.2-26.1-25.7c0-16.8,11.8-26.9,27.4-26.9
		c6.1,0,10.5,1.2,12.4,2.2l-2,7.4c-2.4-1.1-5.8-2-10-2c-10.4,0-17.9,6.5-17.9,18.8c0,11.2,6.5,18.4,17.8,18.4
		c3.7,0,7.7-0.8,10.2-1.8L471.2,67.5z"/>
	<path class="st0" d="M486.7,17.8v20.5h21.6V17.8h9.3V69h-9.3V46.4h-21.6V69h-9.3V17.8H486.7z"/>
	<path class="st0" d="M555.2,46.3h-19.3v15h21.6V69h-30.9V17.8h29.8v7.7h-20.4v13.2h19.3V46.3z"/>
	<path class="st0" d="M563.8,18.6c3.6-0.7,8.7-1.1,14.1-1.1c7.4,0,12.3,1.2,15.8,4.1c2.8,2.4,4.4,5.9,4.4,10.3
		c0,6.6-4.5,11.1-9.3,12.8v0.2c3.7,1.4,5.9,4.9,7.1,9.9c1.7,6.4,3,12.3,4,14.3h-9.6c-0.8-1.5-2-5.7-3.4-12.1c-1.5-6.7-3.9-8.8-9.2-9
		H573v21h-9.3V18.6z M573,41.1h5.5c6.3,0,10.2-3.3,10.2-8.4c0-5.5-3.9-8.2-9.9-8.2c-3,0-4.9,0.2-5.8,0.5V41.1z"/>
</g>
<g>
	<g>
		<path class="st0" d="M153.9,87.3c1.4-0.3,3.7-0.6,5.9-0.6c3.2,0,5.3,0.6,6.9,1.8c1.3,1,2.1,2.5,2.1,4.4c0,2.5-1.6,4.6-4.3,5.5v0.1
			c2.4,0.6,5.2,2.5,5.2,6.3c0,2.2-0.9,3.8-2.2,5c-1.7,1.6-4.6,2.4-8.7,2.4c-2.2,0-4-0.1-5-0.3V87.3z M157.1,97.6h2.9
			c3.4,0,5.4-1.8,5.4-4.3c0-2.9-2.2-4.1-5.5-4.1c-1.5,0-2.4,0.1-2.9,0.2V97.6z M157.1,109.6c0.7,0.1,1.6,0.1,2.7,0.1
			c3.4,0,6.5-1.2,6.5-4.9c0-3.4-2.9-4.9-6.5-4.9h-2.7V109.6z"/>
		<path class="st0" d="M176,103.6c0.1,4.4,2.9,6.2,6.2,6.2c2.4,0,3.8-0.4,5-0.9l0.6,2.4c-1.2,0.5-3.2,1.2-6,1.2
			c-5.5,0-8.9-3.7-8.9-9.1c0-5.4,3.2-9.7,8.5-9.7c5.9,0,7.4,5.2,7.4,8.5c0,0.7,0,1.2-0.1,1.5H176z M185.6,101.3
			c0-2.1-0.9-5.3-4.5-5.3c-3.4,0-4.8,3.1-5,5.3H185.6z"/>
		<path class="st0" d="M194.1,94l2.4,9.1c0.5,2,1,3.9,1.3,5.8h0.1c0.4-1.8,1-3.8,1.6-5.7l2.9-9.2h2.8l2.8,9c0.7,2.1,1.2,4.1,1.6,5.9
			h0.1c0.3-1.8,0.8-3.7,1.4-5.9l2.6-9.1h3.2l-5.8,18.1h-3l-2.8-8.6c-0.6-2.1-1.2-3.8-1.6-6h-0.1c-0.4,2.2-1,4.1-1.6,6l-2.9,8.6h-3
			L190.8,94H194.1z"/>
		<path class="st0" d="M221.8,103.6c0.1,4.4,2.9,6.2,6.2,6.2c2.4,0,3.8-0.4,5-0.9l0.6,2.4c-1.2,0.5-3.2,1.2-6,1.2
			c-5.5,0-8.9-3.7-8.9-9.1c0-5.4,3.2-9.7,8.5-9.7c5.9,0,7.4,5.2,7.4,8.5c0,0.7,0,1.2-0.1,1.5H221.8z M231.4,101.3
			c0-2.1-0.9-5.3-4.5-5.3c-3.4,0-4.8,3.1-5,5.3H231.4z"/>
		<path class="st0" d="M254.1,109.4c0,4.2-0.9,6.7-2.6,8.3c-1.8,1.6-4.3,2.2-6.6,2.2c-2.2,0-4.6-0.5-6-1.5l0.8-2.5
			c1.2,0.8,3.1,1.5,5.3,1.5c3.4,0,5.8-1.8,5.8-6.3v-2h-0.1c-1,1.7-2.9,3-5.7,3c-4.5,0-7.7-3.8-7.7-8.8c0-6.1,4-9.6,8.2-9.6
			c3.1,0,4.8,1.6,5.6,3.1h0.1l0.1-2.7h2.9c-0.1,1.3-0.1,2.8-0.1,4.9V109.4z M250.8,101.1c0-0.5,0-1-0.2-1.5
			c-0.6-1.9-2.2-3.5-4.6-3.5c-3.1,0-5.4,2.6-5.4,6.9c0,3.5,1.8,6.5,5.3,6.5c2.1,0,3.9-1.3,4.6-3.4c0.2-0.5,0.3-1.2,0.3-1.8V101.1z"
			/>
		<path class="st0" d="M263.5,89.7V94h4.7v2.5h-4.7v9.7c0,2.2,0.6,3.5,2.5,3.5c0.9,0,1.4-0.1,1.9-0.2l0.1,2.5
			c-0.6,0.2-1.6,0.4-2.9,0.4c-1.5,0-2.8-0.5-3.5-1.4c-0.9-1-1.3-2.6-1.3-4.7v-9.8h-2.8V94h2.8v-3.3L263.5,89.7z"/>
		<path class="st0" d="M279.8,98.9c0-1.9-0.1-3.4-0.1-4.9h2.9l0.1,2.9h0.1c1-1.7,2.7-3.3,5.7-3.3c2.4,0,4.3,1.5,5.1,3.6h0.1
			c0.6-1,1.3-1.8,2.1-2.4c1.1-0.8,2.2-1.3,4-1.3c2.4,0,6,1.6,6,7.8v10.6h-3.2v-10.2c0-3.5-1.3-5.6-3.9-5.6c-1.9,0-3.3,1.4-3.9,2.9
			c-0.1,0.5-0.3,1.1-0.3,1.6v11.2h-3.2v-10.9c0-2.9-1.3-4.9-3.8-4.9c-2,0-3.5,1.6-4.1,3.3c-0.2,0.5-0.3,1-0.3,1.6v10.9h-3.2V98.9z"
			/>
		<path class="st0" d="M312.8,103.6c0.1,4.4,2.9,6.2,6.2,6.2c2.4,0,3.8-0.4,5-0.9l0.6,2.4c-1.2,0.5-3.2,1.2-6,1.2
			c-5.5,0-8.9-3.7-8.9-9.1c0-5.4,3.2-9.7,8.5-9.7c5.9,0,7.4,5.2,7.4,8.5c0,0.7,0,1.2-0.1,1.5H312.8z M322.4,101.3
			c0-2.1-0.9-5.3-4.5-5.3c-3.4,0-4.8,3.1-5,5.3H322.4z"/>
		<path class="st0" d="M329.6,85.6h3.3v11.3h0.1c0.5-0.9,1.3-1.8,2.4-2.3c1-0.6,2.1-0.9,3.4-0.9c2.4,0,6.3,1.5,6.3,7.7v10.7h-3.3
			v-10.4c0-2.9-1.1-5.3-4.2-5.3c-2.1,0-3.8,1.5-4.4,3.3c-0.2,0.4-0.2,0.9-0.2,1.6v10.9h-3.3V85.6z"/>
		<path class="st0" d="M350.4,99.6c0-2.1,0-4-0.1-5.6h2.9l0.1,3.5h0.1c0.8-2.4,2.8-4,5-4c0.3,0,0.6,0,0.9,0.1v3.1
			c-0.3,0-0.7-0.1-1.1-0.1c-2.3,0-4,1.8-4.4,4.2c-0.1,0.5-0.1,1-0.1,1.5v9.7h-3.3V99.6z"/>
		<path class="st0" d="M362,112.5c-1.3,0-2.2-1-2.2-2.4c0-1.3,0.9-2.4,2.2-2.4c1.3,0,2.2,1,2.2,2.4
			C364.2,111.5,363.4,112.5,362,112.5L362,112.5z"/>
	</g>
</g>
<g>
	<polygon class="st1" points="40,57.2 79.7,99.9 88.1,99.9 48.3,57.2 	"/>
	<polygon class="st1" points="17.4,48.2 65.3,99.9 73.7,99.9 25.7,48.2 	"/>
	<path class="st1" d="M94,69.4c3.9-3.9,6.2-9.3,6.2-14.8c0-5.6-2.2-10.9-6.2-14.8c-3.9-3.9-9.2-6.2-14.8-6.2H36.1l5.6,6.2h37.5
		c3.9,0,7.7,1.6,10.4,4.3c2.8,2.8,4.3,6.5,4.3,10.4c0,3.9-1.6,7.7-4.3,10.4c-2.8,2.8-6.5,4.3-10.4,4.3H66.6
		C76.4,80,85,89.3,94.9,99.9h8.4L80.6,75.5C85.6,75.2,90.4,73,94,69.4z"/>
	<path class="st1" d="M64.9,1.4C29.7,1.4,1,30,1,65.2C1,100.4,29.7,129,64.9,129c35.2,0,63.8-28.6,63.8-63.8
		C128.7,30,100.1,1.4,64.9,1.4z M64.9,123.8c-32.3,0-58.6-26.3-58.6-58.6c0-32.3,26.3-58.6,58.6-58.6c32.3,0,58.6,26.3,58.6,58.6
		C123.5,97.5,97.2,123.8,64.9,123.8z"/>
</g>
</svg>
